Source: Ghost.Ship.2002.720p.BD5.x264-IGUANA

Subs: Arabic, Bulgarian, Croatian, Danish, Dutch, English, Estonian, Finnish, French, Greek, Servian, Slovenian, Spanish, Swedish, Thai, Turkish and Vietnamese.

Sample and Screens included.

General
Complete name                    : Ghost Ship-720p MP4 AAC BRRip 2002-CC.mp4
Format                           : MPEG-4
Format profile                   : Base Media
Codec ID                         : isom
File size                        : 1.88 GiB
Duration                         : 1h 30mn
Overall bit rate                 : 2 960 Kbps

Video
ID                               : 1
Format                           : AVC
Format/Info                      : Advanced Video Codec
Format profile                   : High@L3.1
Format settings, CABAC           : Yes
Format settings, ReFrames        : 5 frames
Codec ID                         : avc1
Codec ID/Info                    : Advanced Video Coding
Duration                         : 1h 30mn
Bit rate mode                    : Variable
Bit rate                         : 2 571 Kbps
Nominal bit rate                 : 2 632 Kbps
Maximum bit rate                 : 28.0 Mbps
Width                            : 1 280 pixels
Height                           : 720 pixels
Display aspect ratio             : 16:9
Frame rate mode                  : Variable
Frame rate                       : 23.976 fps
Minimum frame rate               : 19.048 fps
Maximum frame rate               : 24.390 fps
Resolution                       : 24 bits
Colorimetry                      : 4:2:0
Scan type                        : Progressive
Bits/(Pixel*Frame)               : 0.116
Stream size                      : 1.63 GiB (87%)
Writing library                  : x264 core 112


Audio
ID                               : 2
Format                           : AAC
Format/Info                      : Advanced Audio Codec
Format version                   : Version 4
Format profile                   : LC
Format settings, SBR             : No
Codec ID                         : 40
Duration                         : 1h 30mn
Bit rate mode                    : Variable
Bit rate                         : 384 Kbps
Maximum bit rate                 : 654 Kbps
Channel(s)                       : 6 channels
Channel positions                : Front: L C R, Rear: L R, LFE
Sampling rate                    : 48.0 KHz
Resolution                       : 16 bits
Stream size                      : 249 MiB (13%)
Language                         : English

Enjoy...